<?xml version="1.0" encoding="UTF-8"?>
<svg version="1.1" viewBox="0 0 1048.4 240.99" xmlns="http://www.w3.org/2000/svg">
 <g transform="translate(0 1281.8)">
  <path d="m541.04-1251.8h-95.781v15.26h40.26v90.208h15.26v-90.208h40.26zm-125.31 0v84.583l-45.365-80c-1.5104-2.5521-4.5833-4.5833-7.6562-4.5833h-31.042v105.47h15.26v-90.208h12.24l48.385 84.114c2.0313 3.5418 6.0937 6.0939 10.677 6.0939h13.281v-105.47zm-250.16 45.364c8.6458 0 15.26-6.6145 15.26-15.312 0-8.125-6.6146-14.792-15.26-14.792h-48.385v30.104zm22.917 44.792h8.6457v15.312h-10.156c-4.5834 0-8.6458-2.5521-10.729-6.0939l-22.396-39.271h-36.667v45.365h-15.313v-105.47h63.177c15.781 0 29.062 11.719 30.573 27.5 1.5104 16.302-9.6874 30.104-24.948 32.604zm-102.92-74.896v-15.26h-85.573v105.47h15.781v-45.365h61.667v-14.74h-61.667v-30.104zm215.99 37.708c0-21.875-17.812-39.74-39.688-39.74-21.927 0-40.26 17.864-40.26 39.74 0 21.927 18.333 39.74 40.26 39.74 21.875 0 39.688-17.812 39.688-39.74m15.312 0c0 30.052-24.479 54.531-55 54.531-30.573 0-55.573-24.479-55.573-54.531 0-30.573 25-55 55.573-55 30.521 0 55 24.427 55 55m353.54-37.708v-15.26h-84.062v105.47h84.062v-15.312h-68.229v-30.052h64.167v-14.74h-64.167v-30.104zm78.49 30.104c8.125 0 14.74-6.6145 14.74-15.312 0-8.125-6.6145-14.792-14.74-14.792h-48.438v30.104zm22.396 44.792h6.0937v15.312h-7.6041c-4.5833 0-8.1771-2.5521-10.729-6.0939l-22.396-39.271h-36.198v45.365h-15.781v-105.47h63.698c15.26 0 29.01 11.719 30.573 27.5 1.5104 16.302-10.208 30.104-25 32.604zm-216.51 15.312h15.26v-105.47h-15.26zm474.27-104.95v-5.6249l2.5521 3.5937h0.521l2.5522-3.5937v5.6249h0.989v-7.6563h-0.989l-2.5522 4.0626-3.0729-4.0626h-0.989v7.6563zm-6.0938-6.6145v6.6145h1.5104v-6.6145h2.5522v-1.0414h-6.0938v1.0414zm-94.792-23.958h-117.66c-0.521 0-1.5104 0.521-2.0312 1.0413-0.521 0.469-0.521 1.5104-0.521 2.0312v23.906c0 1.0413 0 1.5625 0.521 2.0833 0.521 0.989 1.5104 0.989 2.0312 0.989h117.66c49.948 0 90.208 40.781 90.208 90.156 0 49.948-40.26 90.677-90.208 90.677-43.281 0-79.948-31.042-88.594-71.823 0-2.0312-2.0833-3.5416-4.1146-3.5416h-23.438c-0.989 0-1.5104 0.521-2.0312 1.0414-0.469 0.469-0.989 1.5104-0.989 2.5 9.1666 57.604 59.062 101.93 119.17 101.93 66.25 0 120.26-54.01 120.26-120.78 0-66.198-54.01-120.21-120.26-120.21m-117.66 75.417h99.323c1.0413 0 1.5625-0.521 2.552-1.0413 0.521-0.521 0.521-1.5104 0.521-2.0314v-23.958c0-0.989 0-1.5104-0.521-2.5522-0.989-0.521-1.5104-0.521-2.552-0.521h-99.323c-0.521 0-1.5103 0-2.0312 0.521-0.521 1.0414-0.521 1.5626-0.521 2.5522v23.958c0 0.521 0 1.5106 0.521 2.0314 0.521 0.521 1.5105 1.0413 2.0312 1.0413m0 44.792c-0.521 0-1.5103 0-2.0312-0.469-0.521-0.521-0.521-1.5625-0.521-2.552v-23.958c0-0.521 0-1.5104 0.521-2.0312 0.521-0.521 1.5105-1.0413 2.0312-1.0413h54.531c0.521 0 1.5104 0.521 2.0314 1.0413 0.521 0.521 0.989 1.5104 0.989 2.0312v23.958c0 0.989-0.469 2.0312-0.989 2.552-0.521 0.469-1.5104 0.469-2.0314 0.469z" fill="#ff0035"/>
 </g>
</svg>
