<?xml version="1.0" encoding="UTF-8" standalone="no"?>
<!-- Created with Inkscape (http://www.inkscape.org/) by Marsupilami -->
<svg
   xmlns:svg="http://www.w3.org/2000/svg"
   xmlns="http://www.w3.org/2000/svg"
   version="1.0"
   width="1024"
   height="191"
   viewBox="0 0 37.303749 6.9612498"
   id="svg3434">
  <defs
     id="defs3436" />
  <g
     transform="translate(-500.8925,-637.80125)"
     id="layer1">
    <path
       d="M 79.275,425.72 L 83.7032,425.72 L 83.7032,426.9483 L 79.275,426.9483 L 79.275,425.72 z "
       transform="matrix(0,-1.25,-1.25,0,1052.5,743.75)"
       style="fill:#001954;fill-opacity:1;fill-rule:nonzero;stroke:none"
       id="path5979" />
    <path
       d="M 81.115,427.064 L 80.661,427.064 C 80.734,427.056 80.81,427.052 80.886,427.052 C 80.964,427.052 81.04,427.056 81.115,427.064"
       transform="matrix(0,-1.25,-1.25,0,1052.5,743.75)"
       style="fill:#001954;fill-opacity:1;fill-rule:nonzero;stroke:none"
       id="path5981" />
    <path
       d="M 81.737,419.707 L 82.495,419.707 L 82.495,420.365 L 83.467,420.365 L 82.978,421.594 L 82.495,421.594 L 82.495,423.319 L 80.794,423.319 C 80.278,423.319 80.173,423.598 80.173,423.809 C 80.173,424.169 80.432,424.214 80.807,424.214 L 82.495,424.214 L 82.495,425.441 L 80.286,425.441 C 79.546,425.441 79.193,424.914 79.193,424.337 C 79.193,423.847 79.36,423.519 79.684,423.289 L 79.684,423.276 L 79.275,423.276 L 79.275,422.091 L 81.737,422.091 L 81.737,421.594 L 80.198,421.594 C 79.317,421.594 79.235,421.017 79.235,420.496 C 79.235,420.234 79.275,419.955 79.275,419.707 L 80.205,419.707 C 80.192,419.802 80.186,419.894 80.186,419.987 C 80.186,420.297 80.316,420.365 80.614,420.365 L 81.737,420.365 L 81.737,419.707"
       transform="matrix(0,-1.25,-1.25,0,1052.5,743.75)"
       style="fill:#001954;fill-opacity:1;fill-rule:nonzero;stroke:none"
       id="path5983" />
    <path
       d="M 84.759,419.417 L 82.962,419.417 L 84.759,414.872 L 84.759,419.417"
       transform="matrix(0,-1.25,-1.25,0,1052.5,743.75)"
       style="fill:#d73647;fill-opacity:1;fill-rule:nonzero;stroke:none"
       id="path5985" />
    <path
       d="M 80.33,433.709 C 80.319,433.709 80.311,433.708 80.299,433.707 C 80.311,433.705 80.319,433.702 80.33,433.699 L 80.33,433.709"
       transform="matrix(0,-1.25,-1.25,0,1052.5,743.75)"
       style="fill:#001954;fill-opacity:1;fill-rule:nonzero;stroke:none"
       id="path5987" />
    <path
       d="M 81.768,439.206 L 81.768,439.92 L 82.65,439.92 L 82.65,439.281 C 82.65,438.76 82.487,438.605 82.211,438.605 C 81.812,438.605 81.768,438.952 81.768,439.206 z M 80.223,437.252 C 80.775,437.301 81.185,437.531 81.327,437.904 C 81.494,437.451 81.981,437.24 82.438,437.24 C 83.275,437.24 83.703,437.91 83.703,438.686 L 83.703,441.286 L 79.275,441.286 L 79.275,439.92 L 80.819,439.92 L 80.819,439.194 C 80.819,438.654 80.378,438.617 79.958,438.58 C 79.726,438.561 79.498,438.536 79.275,438.468 L 79.275,437.103 C 79.48,437.227 80.006,437.233 80.223,437.252"
       transform="matrix(0,-1.25,-1.25,0,1052.5,743.75)"
       style="fill:#001954;fill-opacity:1;fill-rule:nonzero;stroke:none"
       id="path5989" />
    <path
       d="M 81.269,435.884 C 81.57,435.896 81.831,435.762 81.831,435.431 C 81.831,435.073 81.589,434.971 81.269,434.971 L 81.269,435.884 z M 80.806,433.696 C 81.877,433.696 82.578,434.358 82.578,435.444 C 82.578,435.909 82.419,436.407 82.074,436.74 C 81.761,437.045 81.283,437.217 80.842,437.217 C 80.377,437.217 79.93,437.033 79.618,436.682 C 79.291,436.312 79.19,435.845 79.19,435.367 C 79.19,434.61 79.54,433.92 80.299,433.707 C 80.311,433.708 80.319,433.709 80.33,433.709 L 80.33,434.911 C 80.116,434.979 80.025,435.133 80.025,435.386 C 80.025,435.768 80.28,435.896 80.631,435.877 L 80.631,433.696 L 80.806,433.696"
       transform="matrix(0,-1.25,-1.25,0,1052.5,743.75)"
       style="fill:#001954;fill-opacity:1;fill-rule:nonzero;stroke:none"
       id="path5991" />
    <path
       d="M 80.087,428.808 C 80.087,429.273 80.545,429.335 80.886,429.335 C 81.229,429.335 81.68,429.273 81.68,428.808 C 81.68,428.342 81.229,428.282 80.886,428.282 C 80.545,428.282 80.087,428.342 80.087,428.808 z M 82.575,428.808 C 82.575,430.017 81.781,430.564 80.886,430.564 C 80.838,430.564 80.787,430.562 80.741,430.559 C 80.995,430.691 81.138,430.951 81.229,431.234 C 81.365,431.643 81.39,432.109 81.477,432.314 C 81.507,432.382 81.55,432.456 81.645,432.456 C 81.856,432.456 81.891,432.258 81.891,432.084 C 81.891,431.985 81.862,431.886 81.799,431.811 C 81.743,431.73 81.663,431.675 81.557,431.668 L 81.557,430.551 C 82.382,430.583 82.575,431.42 82.575,432.115 C 82.575,432.76 82.363,433.635 81.55,433.635 C 80.999,433.635 80.7,433.256 80.541,432.319 C 80.44,431.749 80.384,431.643 80.198,431.643 C 80.012,431.643 79.949,431.898 79.949,432.059 C 79.949,432.208 79.987,432.326 80.044,432.388 C 80.123,432.48 80.214,432.53 80.33,432.537 L 80.33,433.699 C 80.319,433.702 80.311,433.705 80.299,433.707 C 79.489,433.668 79.193,432.849 79.193,432.103 C 79.193,431.339 79.424,430.505 80.267,430.466 C 79.654,430.261 79.193,429.726 79.193,428.808 C 79.193,427.702 79.862,427.151 80.661,427.064 L 81.115,427.064 C 81.912,427.151 82.575,427.702 82.575,428.808"
       transform="matrix(0,-1.25,-1.25,0,1052.5,743.75)"
       style="fill:#001954;fill-opacity:1;fill-rule:nonzero;stroke:none"
       id="path5993" />
    <path
       d="M 80.087,416.513 C 80.087,416.978 80.545,417.04 80.886,417.04 C 81.229,417.04 81.68,416.978 81.68,416.513 C 81.68,416.047 81.229,415.985 80.886,415.985 C 80.545,415.985 80.087,416.047 80.087,416.513 z M 82.575,412.547 C 82.575,413.038 82.407,413.368 82.086,413.598 L 82.086,413.609 L 82.495,413.609 L 82.495,414.794 L 81.28,414.794 C 82.001,414.936 82.575,415.483 82.575,416.513 C 82.575,417.457 82.09,417.996 81.455,418.188 L 82.495,418.188 L 82.495,419.416 L 79.275,419.416 L 79.275,418.188 L 80.319,418.188 C 79.681,417.996 79.193,417.457 79.193,416.513 C 79.193,415.483 79.772,414.936 80.494,414.794 L 79.275,414.794 L 79.275,413.565 L 80.973,413.565 C 81.488,413.565 81.595,413.287 81.595,413.076 C 81.595,412.716 81.335,412.672 80.962,412.672 L 79.275,412.672 L 79.275,411.443 L 81.482,411.443 C 82.221,411.443 82.575,411.972 82.575,412.547"
       transform="matrix(0,-1.25,-1.25,0,1052.5,743.75)"
       style="fill:#001954;fill-opacity:1;fill-rule:nonzero;stroke:none"
       id="path5995" />
  </g>
</svg>
