<svg class="custom-logo-svg" fill="none" height="46" viewBox="0 0 220 46" width="220" xmlns="http://www.w3.org/2000/svg"><mask height="46" id="mask0_3009_8138" maskUnits="userSpaceOnUse" style="mask-type:luminance" width="220" x="0" y="0"><path d="M220 0.798096H0V45.7981H220V0.798096Z" fill="white"></path></mask><g mask="url(#mask0_3009_8138)"><path clip-rule="evenodd" d="M59.1513 19.1342C61.2783 19.1342 63.1304 19.5459 64.7103 20.3693C66.2885 21.1926 67.5864 22.2983 68.6009 23.6867C69.6164 25.0758 70.3489 26.6578 70.8005 28.433C71.252 30.209 71.413 32.0655 71.2838 34.0027H53.2538C53.3501 36.2309 53.914 37.8459 54.9453 38.8464C55.9764 39.8467 57.4593 40.3471 59.3926 40.3471C60.7781 40.3471 61.9702 40.0008 62.9695 39.306C63.9681 38.6126 64.5806 37.8779 64.8066 37.1022H70.8491C69.8824 40.1054 68.3996 42.2533 66.4018 43.544C64.4029 44.8358 61.986 45.4812 59.1513 45.4812C57.1851 45.4812 55.4118 45.1669 53.8336 44.5364C52.2545 43.907 50.9166 43.0111 49.821 41.8488C48.7252 40.6862 47.8794 39.2988 47.2832 37.6839C46.6868 36.0699 46.389 34.2931 46.389 32.3559C46.389 30.4841 46.6955 28.7401 47.3078 27.1254C47.9193 25.5112 48.7897 24.115 49.9182 22.9359C51.0458 21.7574 52.3906 20.8289 53.9544 20.1514C55.5169 19.4731 57.2488 19.1342 59.1513 19.1342ZM87.6568 19.1342C89.7837 19.1342 91.6359 19.5459 93.2156 20.3693C94.7939 21.1926 96.0919 22.2983 97.1064 23.6867C98.1218 25.0758 98.8544 26.6578 99.3057 28.433C99.7573 30.209 99.9182 32.0655 99.7893 34.0027H81.7591C81.8555 36.2309 82.4194 37.8459 83.4507 38.8464C84.4819 39.8467 85.9646 40.3471 87.8979 40.3471C89.2835 40.3471 90.4756 40.0008 91.475 39.306C92.4736 38.6126 93.0859 37.8779 93.312 37.1022H99.3543C98.3877 40.1054 96.905 42.2533 94.907 43.544C92.9083 44.8358 90.4915 45.4812 87.6568 45.4812C85.6906 45.4812 83.917 45.1669 82.3391 44.5364C80.7597 43.907 79.4221 43.0111 78.3263 41.8488C77.2307 40.6862 76.3848 39.2988 75.7884 37.6839C75.192 36.0699 74.8944 34.2931 74.8944 32.3559C74.8944 30.4841 75.2009 28.7401 75.8132 27.1254C76.4247 25.5112 77.2951 24.115 78.4235 22.9359C79.5512 21.7574 80.8961 20.8289 82.4599 20.1514C84.0224 19.4731 85.7543 19.1342 87.6568 19.1342ZM160.098 19.1343C161.354 19.1343 162.627 19.2235 163.917 19.4007C165.205 19.5784 166.382 19.9255 167.445 20.4417C168.509 20.9588 169.378 21.677 170.055 22.5968C170.732 23.5174 171.071 24.7366 171.071 26.2534V39.2819C171.071 40.4126 171.135 41.4936 171.264 42.5268C171.392 43.5608 171.618 44.3355 171.941 44.8518H164.98C164.851 44.464 164.745 44.0691 164.666 43.6654C164.585 43.2617 164.528 42.8498 164.496 42.4303C163.4 43.5608 162.111 44.3514 160.629 44.8031C159.147 45.2555 157.632 45.4812 156.086 45.4812C154.893 45.4812 153.781 45.3359 152.75 45.0456C151.718 44.7552 150.816 44.3027 150.043 43.6893C149.269 43.0766 148.665 42.3019 148.23 41.3644C147.795 40.4285 147.578 39.3147 147.578 38.0229C147.578 36.602 147.827 35.4315 148.326 34.5117C148.826 33.5909 149.471 32.857 150.261 32.3074C151.05 31.7591 151.952 31.3474 152.967 31.0721C153.983 30.7985 155.005 30.5808 156.037 30.4188C157.068 30.2578 158.083 30.1284 159.082 30.031C160.081 29.9344 160.968 29.7893 161.741 29.5953C162.514 29.4016 163.127 29.1191 163.578 28.7482C164.029 28.3772 164.238 27.8361 164.206 27.1253C164.206 26.3832 164.085 25.7938 163.844 25.3573C163.602 24.9215 163.28 24.5826 162.877 24.3408C162.474 24.0983 162.007 23.9371 161.475 23.8558C160.943 23.776 160.371 23.7353 159.759 23.7353C158.405 23.7353 157.342 24.0257 156.569 24.6064C155.795 25.1883 155.344 26.1568 155.215 27.5131H148.351C148.447 25.8983 148.85 24.5585 149.559 23.4926C150.268 22.4275 151.171 21.5724 152.267 20.9262C153.361 20.2805 154.594 19.8203 155.965 19.5458C157.333 19.2713 158.712 19.1343 160.098 19.1343ZM26.0392 10.271V16.6641H9.36218V24.6551H23.816V30.5639H9.36218V44.8518H1.77344V10.271H26.0392ZM43.1997 19.1342C43.6503 19.1342 44.1497 19.2148 44.6983 19.3758V25.7689C44.3759 25.7052 43.9888 25.6486 43.538 25.5999C43.0866 25.5512 42.651 25.5271 42.2329 25.5271C40.9756 25.5271 39.9127 25.7371 39.0421 26.1567C38.1724 26.5764 37.4709 27.1493 36.9399 27.876C36.408 28.6028 36.0289 29.4503 35.8037 30.4188C35.5775 31.3875 35.4652 32.4375 35.4652 33.5672V44.8517H28.6009V19.8123H35.1267V24.4612H35.2239C35.5455 23.6865 35.9805 22.9685 36.529 22.3063C37.0763 21.6449 37.7044 21.0792 38.4139 20.6109C39.1226 20.1435 39.88 19.7803 40.6857 19.5211C41.4907 19.2634 42.3293 19.1342 43.1997 19.1342ZM133.656 19.1342C134.977 19.1342 136.202 19.296 137.33 19.6185C138.458 19.9417 139.425 20.4585 140.23 21.1677C141.035 21.8787 141.665 22.8075 142.116 23.9529C142.567 25.0995 142.793 26.4797 142.793 28.0939V44.8517H135.929V30.6605C135.929 29.822 135.896 29.0304 135.832 28.2877C135.767 27.5449 135.59 26.8994 135.3 26.3507C135.01 25.8017 134.582 25.3659 134.019 25.0429C133.455 24.7206 132.69 24.5586 131.723 24.5586C130.756 24.5586 129.974 24.7445 129.378 25.1154C128.782 25.4874 128.315 25.9716 127.977 26.5684C127.638 27.166 127.412 27.8442 127.3 28.6028C127.187 29.3616 127.13 30.1283 127.13 30.903V44.8517H120.266V30.8064C120.266 30.0637 120.249 29.3288 120.218 28.6028C120.186 27.876 120.049 27.2067 119.808 26.5923C119.565 25.9796 119.163 25.4874 118.599 25.1154C118.034 24.7445 117.204 24.5586 116.11 24.5586C115.787 24.5586 115.36 24.6314 114.828 24.7765C114.296 24.9216 113.78 25.1962 113.281 25.5999C112.781 26.0036 112.355 26.5851 112.001 27.3431C111.645 28.1026 111.469 29.0952 111.469 30.3223V44.8517H104.605V19.8123H111.082V23.2025H111.179C112.08 21.9113 113.168 20.9102 114.441 20.1992C115.715 19.49 117.173 19.1342 118.816 19.1342C120.394 19.1342 121.837 19.4413 123.142 20.0541C124.448 20.6677 125.439 21.7495 126.116 23.2987C126.857 22.2018 127.863 21.2332 129.137 20.393C130.41 19.5539 131.916 19.1342 133.656 19.1342ZM191.392 19.1342C193.229 19.1342 194.735 19.3847 195.912 19.8849C197.087 20.3858 198.014 21.0792 198.691 21.9672C199.368 22.856 199.844 23.937 200.117 25.2121C200.391 26.4877 200.528 27.8999 200.528 29.4503V44.8517H193.664V30.7092C193.664 28.6435 193.342 27.1014 192.698 26.0841C192.052 25.0668 190.909 24.5586 189.265 24.5586C187.395 24.5586 186.042 25.1154 185.204 26.2293C184.367 27.3431 183.948 29.1767 183.948 31.7264V44.8517H177.083V19.8123H183.609V23.2987H183.754C184.624 21.846 185.752 20.7888 187.139 20.1266C188.523 19.4652 189.942 19.1342 191.392 19.1342ZM164.206 32.5986C163.917 32.857 163.553 33.0582 163.119 33.2031C162.684 33.3492 162.217 33.4699 161.717 33.5671C161.217 33.6635 160.693 33.745 160.146 33.8088C159.597 33.8742 159.05 33.9539 158.503 34.0513C157.986 34.1479 157.479 34.2772 156.98 34.4384C156.48 34.6002 156.044 34.819 155.675 35.0926C155.304 35.3669 155.005 35.7148 154.78 36.1337C154.554 36.5543 154.442 37.0864 154.442 37.7319C154.442 38.3462 154.554 38.8624 154.78 39.2819C155.005 39.7015 155.312 40.0327 155.699 40.2747C156.086 40.517 156.536 40.6862 157.052 40.7835C157.568 40.8802 158.099 40.9289 158.647 40.9289C160.001 40.9289 161.047 40.7028 161.79 40.2506C162.53 39.7989 163.078 39.258 163.433 38.6277C163.788 37.9983 164.005 37.3617 164.085 36.7155C164.166 36.0698 164.206 35.553 164.206 35.1651V32.5986ZM58.9577 24.3161C57.8613 24.3161 56.951 24.5019 56.2264 24.8729C55.501 25.2448 54.9213 25.7052 54.4858 26.2533C54.0509 26.8031 53.7444 27.3838 53.5677 27.9972C53.39 28.6109 53.2849 29.1598 53.2538 29.644H64.4197C64.0971 27.9001 63.5255 26.5763 62.7036 25.6724C61.8818 24.7685 60.6325 24.3161 58.9577 24.3161ZM87.4631 24.3161C86.3668 24.3161 85.4565 24.5019 84.7318 24.8729C84.0063 25.2448 83.4267 25.7052 82.9911 26.2533C82.5563 26.8031 82.2498 27.3838 82.073 27.9972C81.8954 28.6109 81.7903 29.1598 81.7591 29.644H92.9249C92.6025 27.9001 92.0309 26.5763 91.2091 25.6724C90.3871 24.7685 89.1378 24.3161 87.4631 24.3161Z" fill="white" fill-rule="evenodd"></path><path clip-rule="evenodd" d="M203.365 1.46842V7.35396L212.685 7.34183L212.701 16.6969H218.67L218.654 1.4563L203.365 1.46842Z" fill="#5ED6FF" fill-rule="evenodd"></path><path clip-rule="evenodd" d="M216.356 41.6773C216.46 41.5916 216.512 41.4581 216.512 41.2762C216.512 41.0892 216.46 40.9528 216.356 40.8671C216.253 40.7813 216.092 40.7385 215.874 40.7385H215.143V41.8059H215.874C216.092 41.8059 216.253 41.7633 216.356 41.6773ZM216.683 42.5617L217.282 43.5669H216.636L216.022 42.5149C215.96 42.4162 215.894 42.3476 215.824 42.3083C215.754 42.2695 215.661 42.25 215.548 42.25H215.143V43.5669H214.568V40.2789H215.944C216.307 40.2789 216.587 40.3647 216.784 40.5362C216.981 40.7074 217.079 40.9465 217.079 41.2529C217.079 41.5075 217.007 41.7176 216.862 41.8838C216.717 42.0503 216.51 42.1541 216.24 42.1954C216.411 42.2422 216.559 42.3642 216.683 42.5617ZM216.963 44.0421C217.331 43.8291 217.62 43.537 217.83 43.1655C218.04 42.7943 218.145 42.38 218.145 41.9228C218.145 41.4658 218.04 41.0528 217.83 40.6839C217.62 40.3154 217.331 40.0242 216.963 39.8115C216.595 39.5985 216.185 39.4919 215.735 39.4919C215.283 39.4919 214.874 39.5985 214.506 39.8115C214.138 40.0242 213.847 40.3154 213.635 40.6839C213.422 41.0528 213.316 41.4658 213.316 41.9228C213.316 42.38 213.422 42.7943 213.635 43.1655C213.847 43.537 214.138 43.8291 214.506 44.0421C214.874 44.255 215.283 44.3613 215.735 44.3613C216.185 44.3613 216.595 44.255 216.963 44.0421ZM217.146 39.5076C217.568 39.7518 217.901 40.0856 218.145 40.5087C218.389 40.9319 218.511 41.4037 218.511 41.9228C218.511 42.4421 218.389 42.9137 218.145 43.3369C217.901 43.7604 217.567 44.0955 217.142 44.342C216.717 44.5889 216.248 44.7122 215.735 44.7122C215.216 44.7122 214.746 44.5889 214.323 44.342C213.901 44.0955 213.566 43.7604 213.319 43.3369C213.074 42.9137 212.95 42.4421 212.95 41.9228C212.95 41.4037 213.072 40.9319 213.316 40.5087C213.559 40.0856 213.894 39.7518 214.319 39.5076C214.744 39.2636 215.216 39.1414 215.735 39.1414C216.253 39.1414 216.723 39.2636 217.146 39.5076Z" fill="#C4C7C7" fill-rule="evenodd"></path></g></svg>