<?xml version="1.0" encoding="UTF-8" standalone="no"?>
<svg
   width="228"
   height="79.016998"
   viewBox="0 0 228 79.017001"
   version="1.1"
   id="svg39"
   sodipodi:docname="logo.svg"
   inkscape:version="1.3 (0e150ed6c4, 2023-07-21)"
   xmlns:inkscape="http://www.inkscape.org/namespaces/inkscape"
   xmlns:sodipodi="http://sodipodi.sourceforge.net/DTD/sodipodi-0.dtd"
   xmlns="http://www.w3.org/2000/svg"
   xmlns:svg="http://www.w3.org/2000/svg">
  <sodipodi:namedview
     id="namedview39"
     pagecolor="#ffffff"
     bordercolor="#000000"
     borderopacity="0.25"
     inkscape:showpageshadow="2"
     inkscape:pageopacity="0.0"
     inkscape:pagecheckerboard="0"
     inkscape:deskcolor="#d1d1d1"
     inkscape:zoom="3.899286"
     inkscape:cx="101.42883"
     inkscape:cy="49.880928"
     inkscape:window-width="2560"
     inkscape:window-height="1334"
     inkscape:window-x="-11"
     inkscape:window-y="-11"
     inkscape:window-maximized="1"
     inkscape:current-layer="svg39" />
  <defs
     id="defs1">
    <style
       id="style1">.a{fill:#fff;}.b,.c{fill:#acd03a;}.b{fill-rule:evenodd;}</style>
  </defs>
  <rect
     style="fill:#024860;fill-opacity:1;stroke-width:15.1181;stroke-linecap:round;stroke-linejoin:round"
     id="rect39"
     width="228"
     height="79.016998"
     x="0"
     y="0" />
  <g
     transform="translate(-260.638,-397.199)"
     id="g39">
    <g
       transform="translate(270.638,407.199)"
       id="g30">
      <g
         transform="translate(0,12.606)"
         id="g12">
        <path
           class="a"
           d="M 282.407,470.087 H 276.1 v -2.455 q 0.561,-1.146 1.223,-2.241 a 35,35 0 0 1 13.869,-12.514 0.482,0.482 0 1 0 -0.454,-0.85 35.934,35.934 0 0 0 -14.252,12.885 c -0.133,0.219 -0.26,0.44 -0.387,0.662 v -2.782 a 52.2,52.2 0 0 1 2.921,-8.428 0.482,0.482 0 1 0 -0.881,-0.391 53.128,53.128 0 0 0 -2.995,8.662 h -4.5 v 20.1 h 1.48 a 37.154,37.154 0 0 0 2.329,11.81 0.482,0.482 0 0 0 0.89,-0.369 37.2,37.2 0 0 1 -2.251,-11.441 h 1.353 q 0.247,1.366 0.574,2.721 a 40.845,40.845 0 0 0 5.239,12.717 0.482,0.482 0 0 0 0.793,-0.548 28.074,28.074 0 0 1 -1.853,-3.313 45.388,45.388 0 0 1 -3.252,-9.123 q -0.294,-1.221 -0.521,-2.453 h 0.677 v -8.194 h 6.311 v 8.194 h 5.458 v -20.1 h -5.458 z"
           transform="translate(-270.638,-451.97)"
           id="path1" />
        <path
           class="a"
           d="m 350.612,505.913 a 8.223,8.223 0 0 0 -4.056,-0.976 7.681,7.681 0 0 0 -5.768,2.11 9.465,9.465 0 0 0 0.041,11.83 7.454,7.454 0 0 0 5.644,2.186 7.6,7.6 0 0 0 5.754,-2.138 8.246,8.246 0 0 0 2.055,-5.96 9.033,9.033 0 0 0 -0.956,-4.255 6.665,6.665 0 0 0 -2.714,-2.797 z m -2.312,10.112 a 1.81,1.81 0 0 1 -1.767,1.052 1.864,1.864 0 0 1 -1.8,-1.052 6.921,6.921 0 0 1 -0.536,-3.059 6.641,6.641 0 0 1 0.536,-3.018 2.07,2.07 0 0 1 3.561,0.007 6.8,6.8 0 0 1 0.522,3.011 7.161,7.161 0 0 1 -0.516,3.059 z"
           transform="translate(-319.56,-490.023)"
           id="path2" />
        <path
           class="a"
           d="m 414.232,505.913 -1.375,5.981 a 22.239,22.239 0 0 0 -0.426,2.509 q -0.193,1.561 -0.275,2.605 h -0.082 a 47.592,47.592 0 0 0 -0.8,-4.729 l -1.32,-6.366 h -5.939 l -1.444,6.283 a 35.869,35.869 0 0 0 -0.756,4.812 h -0.082 a 36.442,36.442 0 0 0 -0.7,-5.114 l -1.265,-5.981 h -5.293 l 4.248,15.577 h 5.651 l 1.581,-6.613 q 0.234,-1 0.908,-4.853 h 0.082 l 0.275,1.8 0.413,2.241 1.76,7.424 h 5.747 l 4.276,-15.577 z"
           transform="translate(-359.607,-490.724)"
           id="path3" />
        <path
           class="a"
           d="m 491.325,504.937 a 14.944,14.944 0 0 0 -6.874,1.4 l 1.549,3.549 a 11.343,11.343 0 0 1 4.331,-1.155 1.689,1.689 0 0 1 1.9,1.925 v 0.22 l -2.6,0.082 a 9.473,9.473 0 0 0 -5.018,1.368 4.223,4.223 0 0 0 -1.732,3.705 5.148,5.148 0 0 0 1.265,3.712 4.572,4.572 0 0 0 3.465,1.32 7.311,7.311 0 0 0 2.915,-0.495 6.124,6.124 0 0 0 2.214,-1.842 h 0.11 l 1.031,2.063 h 3.726 v -10.215 a 5.312,5.312 0 0 0 -1.643,-4.152 6.682,6.682 0 0 0 -4.639,-1.485 z m 0.935,10.1 a 2.054,2.054 0 0 1 -0.694,1.609 2.425,2.425 0 0 1 -1.671,0.619 q -1.526,0 -1.526,-1.43 0,-1.856 2.653,-1.952 l 1.237,-0.055 z"
           transform="translate(-423.123,-490.023)"
           id="path4" />
        <path
           class="a"
           d="m 552.571,504.937 a 4.491,4.491 0 0 0 -2.427,0.763 5.381,5.381 0 0 0 -1.877,2 h -0.261 l -0.839,-2.488 h -4 v 15.577 h 5.376 v -7.658 a 3.151,3.151 0 0 1 0.8,-2.316 3.484,3.484 0 0 1 2.557,-0.8 7.92,7.92 0 0 1 1.829,0.165 l 0.481,-5.073 -0.3,-0.055 a 7.818,7.818 0 0 0 -1.339,-0.115 z"
           transform="translate(-466.432,-490.023)"
           id="path5" />
        <path
           class="a"
           d="m 592.35,489.425 a 25.8,25.8 0 0 0 0.261,3.657 h -0.11 a 5.06,5.06 0 0 0 -1.794,-1.76 4.812,4.812 0 0 0 -2.289,-0.522 4.87,4.87 0 0 0 -4.193,2.145 10.1,10.1 0 0 0 -1.526,5.939 12.4,12.4 0 0 0 0.681,4.3 6.018,6.018 0 0 0 1.925,2.791 4.66,4.66 0 0 0 2.908,0.949 4.556,4.556 0 0 0 4.138,-2.241 h 0.206 l 1.155,1.966 h 4.056 v -21.39 h -5.418 z m 0.454,9.94 a 4.891,4.891 0 0 1 -0.57,2.5 2.009,2.009 0 0 1 -1.822,0.811 1.881,1.881 0 0 1 -1.691,-0.949 5.27,5.27 0 0 1 -0.591,-2.763 5.664,5.664 0 0 1 0.585,-2.839 1.817,1.817 0 0 1 1.643,-1 2.083,2.083 0 0 1 1.856,0.873 5.443,5.443 0 0 1 0.591,2.935 z"
           transform="translate(-494.832,-475.886)"
           id="path6" />
        <path
           class="a"
           d="m 673.553,493.278 a 7.794,7.794 0 0 1 2.392,0.357 18.766,18.766 0 0 1 2.227,0.88 l 1.664,-4.276 a 14.3,14.3 0 0 0 -6.228,-1.416 10.213,10.213 0 0 0 -5.19,1.272 8.411,8.411 0 0 0 -3.382,3.636 12.176,12.176 0 0 0 -1.176,5.485 q 0,4.991 2.427,7.63 2.427,2.639 6.977,2.64 a 13.923,13.923 0 0 0 5.692,-1.114 v -4.592 a 25.812,25.812 0 0 1 -2.516,0.894 9.039,9.039 0 0 1 -2.585,0.371 q -4.413,0 -4.413,-5.8 a 7.668,7.668 0 0 1 1.086,-4.379 3.463,3.463 0 0 1 3.025,-1.588 z"
           transform="translate(-553.142,-478.447)"
           id="path7" />
        <path
           class="a"
           d="m 734.753,505.913 a 8.224,8.224 0 0 0 -4.056,-0.976 7.68,7.68 0 0 0 -5.767,2.11 9.465,9.465 0 0 0 0.041,11.83 7.454,7.454 0 0 0 5.644,2.186 7.606,7.606 0 0 0 5.754,-2.138 8.246,8.246 0 0 0 2.055,-5.96 9.036,9.036 0 0 0 -0.956,-4.255 6.666,6.666 0 0 0 -2.715,-2.797 z m -2.317,10.112 a 1.811,1.811 0 0 1 -1.767,1.052 1.864,1.864 0 0 1 -1.8,-1.052 6.921,6.921 0 0 1 -0.536,-3.059 6.641,6.641 0 0 1 0.536,-3.018 2.07,2.07 0 0 1 3.561,0.007 6.8,6.8 0 0 1 0.522,3.011 7.162,7.162 0 0 1 -0.516,3.059 z"
           transform="translate(-595.539,-490.023)"
           id="path8" />
        <path
           class="a"
           d="m 793.693,512.732 a 8.316,8.316 0 0 1 -0.591,3.691 2.071,2.071 0 0 1 -1.98,1.093 1.5,1.5 0 0 1 -1.423,-0.784 4.886,4.886 0 0 1 -0.433,-2.31 v -8.51 h -5.376 v 10.146 a 5.844,5.844 0 0 0 1.43,4.214 5.28,5.28 0 0 0 4,1.492 6.535,6.535 0 0 0 2.825,-0.57 4.375,4.375 0 0 0 1.877,-1.643 h 0.316 l 0.674,1.939 h 4.056 v -15.577 h -5.376 z"
           transform="translate(-639.375,-490.724)"
           id="path9" />
        <path
           class="a"
           d="m 855.727,504.937 a 6.729,6.729 0 0 0 -2.8,0.55 4.261,4.261 0 0 0 -1.9,1.65 h -0.316 l -0.674,-1.925 h -4.056 v 15.577 h 5.376 v -6.819 a 8.228,8.228 0 0 1 0.605,-3.726 2.079,2.079 0 0 1 1.966,-1.086 1.527,1.527 0 0 1 1.437,0.791 4.878,4.878 0 0 1 0.447,2.344 v 8.5 h 5.375 v -10.137 a 5.854,5.854 0 0 0 -1.437,-4.221 5.308,5.308 0 0 0 -4.023,-1.498 z"
           transform="translate(-683.982,-490.023)"
           id="path10" />
        <path
           class="a"
           d="m 911.268,508.041 v -6.063 h 3.822 v -4.028 h -3.822 v -3.121 h -3.52 l -1.388,3.271 -2.392,1.691 v 2.186 h 1.883 v 6.423 a 5.941,5.941 0 0 0 1.2,4.076 5.03,5.03 0 0 0 3.9,1.327 11.711,11.711 0 0 0 2.3,-0.2 10.583,10.583 0 0 0 2.069,-0.667 v -3.918 a 8,8 0 0 1 -2.6,0.536 q -1.452,0 -1.452,-1.513 z"
           transform="translate(-725.643,-482.761)"
           id="path11" />
        <path
           class="a"
           d="m 959.992,505.913 -2.708,8.964 a 9.326,9.326 0 0 0 -0.33,1.663 h -0.11 a 8.8,8.8 0 0 0 -0.261,-1.691 l -2.64,-8.937 h -5.665 l 6.132,15.357 a 6.837,6.837 0 0 1 -0.853,1.643 2.846,2.846 0 0 1 -0.935,0.777 2.71,2.71 0 0 1 -1.251,0.275 7.584,7.584 0 0 1 -1.664,-0.165 v 4.221 a 10.836,10.836 0 0 0 2.2,0.234 7.265,7.265 0 0 0 4.5,-1.306 9.738,9.738 0 0 0 2.908,-4.468 l 6.159,-16.567 z"
           transform="translate(-757.477,-490.724)"
           id="path12" />
      </g>
      <path
         class="b"
         d="m 303.883,454.677 c -1.28,0.2 -1.739,-0.354 -1.857,-1.109 -0.118,-0.755 0.149,-1.423 1.429,-1.624 a 6.5,6.5 0 0 1 3.206,0.9 6.5,6.5 0 0 1 -2.778,1.835 z"
         transform="translate(-293.17,-439.328)"
         id="path13" />
      <path
         class="b"
         d="m 295.3,442.465 c 0.342,1.25 -0.158,1.767 -0.895,1.969 -0.737,0.202 -1.431,0.01 -1.773,-1.239 a 6.5,6.5 0 0 1 0.534,-3.286 6.5,6.5 0 0 1 2.133,2.556 z"
         transform="translate(-286.382,-430.699)"
         id="path14" />
      <path
         class="b"
         d="m 311.293,444.091 c -1.28,0.2 -1.739,-0.354 -1.857,-1.109 -0.118,-0.755 0.149,-1.423 1.429,-1.624 a 6.5,6.5 0 0 1 3.206,0.9 6.5,6.5 0 0 1 -2.778,1.835 z"
         transform="translate(-298.493,-431.723)"
         id="path15" />
      <path
         class="b"
         d="m 302.709,431.879 c 0.342,1.25 -0.158,1.768 -0.895,1.969 -0.737,0.201 -1.431,0.01 -1.773,-1.239 a 6.5,6.5 0 0 1 0.534,-3.286 6.5,6.5 0 0 1 2.133,2.556 z"
         transform="translate(-291.706,-423.094)"
         id="path16" />
      <path
         class="b"
         d="m 319.981,433.327 c -1.28,0.2 -1.739,-0.354 -1.857,-1.109 -0.118,-0.755 0.149,-1.423 1.429,-1.624 a 6.5,6.5 0 0 1 3.206,0.9 6.5,6.5 0 0 1 -2.778,1.835 z"
         transform="translate(-304.735,-423.989)"
         id="path17" />
      <path
         class="b"
         d="m 310.867,421.588 c 0.342,1.25 -0.158,1.767 -0.895,1.969 -0.737,0.202 -1.431,0.01 -1.773,-1.239 a 6.5,6.5 0 0 1 0.534,-3.286 6.5,6.5 0 0 1 2.133,2.556 z"
         transform="translate(-297.567,-415.7)"
         id="path18" />
      <path
         class="b"
         d="m 327.325,423.461 c -1.111,0.273 -1.556,-0.181 -1.717,-0.835 -0.161,-0.654 0.024,-1.263 1.134,-1.536 a 5.736,5.736 0 0 1 2.888,0.547 5.739,5.739 0 0 1 -2.3,1.823 z"
         transform="translate(-310.094,-417.139)"
         id="path19" />
      <path
         class="b"
         d="m 318.189,413.225 c 0.1,1.14 -0.421,1.509 -1.093,1.566 -0.672,0.057 -1.244,-0.22 -1.34,-1.36 a 5.739,5.739 0 0 1 0.992,-2.767 5.739,5.739 0 0 1 1.441,2.562 z"
         transform="translate(-303.048,-409.688)"
         id="path20" />
      <path
         class="b"
         d="m 327.93,410.022 c -0.838,0.825 -1.47,0.658 -1.956,0.164 -0.486,-0.494 -0.643,-1.128 0.2,-1.953 a 5.9,5.9 0 0 1 2.839,-1.034 5.9,5.9 0 0 1 -1.078,2.822 z"
         transform="translate(-310.106,-407.199)"
         id="path21" />
      <path
         class="b"
         d="m 347.425,452.7 c -1.268,-0.268 -1.5,-0.95 -1.341,-1.7 0.159,-0.75 0.646,-1.273 1.916,-1 a 6.5,6.5 0 0 1 2.676,1.98 6.5,6.5 0 0 1 -3.249,0.725 z"
         transform="translate(-324.81,-437.895)"
         id="path22" />
      <path
         class="b"
         d="m 342.462,437.591 c -0.126,1.29 -0.777,1.6 -1.538,1.522 -0.761,-0.078 -1.341,-0.5 -1.215,-1.789 a 6.5,6.5 0 0 1 1.669,-2.88 6.5,6.5 0 0 1 1.083,3.148 z"
         transform="translate(-320.249,-426.772)"
         id="path23" />
      <path
         class="b"
         d="m 358.119,445.448 c -1.268,-0.268 -1.5,-0.95 -1.341,-1.7 0.159,-0.75 0.646,-1.277 1.913,-1.009 a 6.5,6.5 0 0 1 2.677,1.98 6.5,6.5 0 0 1 -3.249,0.725 z"
         transform="translate(-332.492,-432.684)"
         id="path24" />
      <path
         class="b"
         d="m 353.156,430.338 c -0.125,1.289 -0.777,1.6 -1.537,1.521 -0.76,-0.079 -1.341,-0.5 -1.216,-1.789 a 6.5,6.5 0 0 1 1.669,-2.88 6.5,6.5 0 0 1 1.083,3.148 z"
         transform="translate(-327.932,-421.561)"
         id="path25" />
      <path
         class="b"
         d="m 370.071,438.484 c -1.267,-0.268 -1.5,-0.95 -1.341,-1.7 0.159,-0.75 0.646,-1.277 1.914,-1.009 a 6.5,6.5 0 0 1 2.676,1.98 6.5,6.5 0 0 1 -3.249,0.725 z"
         transform="translate(-341.079,-427.681)"
         id="path26" />
      <path
         class="b"
         d="m 364.444,423.627 c -0.125,1.29 -0.777,1.6 -1.537,1.521 -0.76,-0.079 -1.341,-0.5 -1.216,-1.789 a 6.5,6.5 0 0 1 1.669,-2.88 6.5,6.5 0 0 1 1.083,3.148 z"
         transform="translate(-336.042,-416.74)"
         id="path27" />
      <path
         class="b"
         d="m 380.634,431.831 c -1.135,-0.14 -1.39,-0.723 -1.307,-1.392 0.083,-0.669 0.472,-1.172 1.607,-1.031 a 5.737,5.737 0 0 1 2.5,1.54 5.737,5.737 0 0 1 -2.8,0.883 z"
         transform="translate(-348.713,-423.137)"
         id="path28" />
      <path
         class="b"
         d="m 374.337,418.771 c -0.316,1.1 -0.931,1.26 -1.579,1.074 -0.648,-0.186 -1.084,-0.649 -0.768,-1.748 a 5.736,5.736 0 0 1 1.912,-2.232 5.738,5.738 0 0 1 0.434,2.907 z"
         transform="translate(-343.377,-413.424)"
         id="path29" />
      <path
         class="b"
         d="m 385.237,420.837 c -1.077,0.472 -1.608,0.092 -1.886,-0.543 -0.278,-0.635 -0.2,-1.283 0.878,-1.756 a 5.9,5.9 0 0 1 3.021,0.045 5.9,5.9 0 0 1 -2.013,2.253 z"
         transform="translate(-351.516,-415.203)"
         id="path30" />
    </g>
    <g
       transform="translate(278.7,454.537)"
       id="g31">
      <line
         class="c"
         x2="178.795"
         transform="translate(0.563,0.563)"
         id="line30"
         x1="0"
         y1="0"
         y2="0" />
      <path
         class="c"
         d="m 480.237,576.449 h -180.4 a 0.563,0.563 0 1 1 0,-1.126 h 180.4 a 0.563,0.563 0 1 1 0,1.126 z"
         transform="translate(-299.271,-575.323)"
         id="path31" />
    </g>
    <path
       class="a"
       d="m 323.48,598.939 -1.4,-4.922 h -0.042 q 0.1,1.257 0.1,1.954 v 2.968 H 320.5 V 592.1 h 2.459 l 1.426,4.852 h 0.037 l 1.4,-4.852 h 2.463 v 6.834 h -1.7 v -3 q 0,-0.234 0.007,-0.519 0.007,-0.285 0.063,-1.4 h -0.042 l -1.379,4.913 z"
       transform="translate(-35.824,-132.843)"
       id="path32" />
    <path
       class="a"
       d="m 415.482,598.867 -0.336,-1.281 h -2.22 l -0.346,1.281 h -2.029 l 2.23,-6.862 h 2.463 l 2.258,6.862 z m -0.72,-2.8 -0.295,-1.122 q -0.1,-0.374 -0.25,-0.968 -0.15,-0.594 -0.194,-0.851 -0.042,0.238 -0.166,0.785 -0.124,0.547 -0.549,2.155 z"
       transform="translate(-100.518,-132.771)"
       id="path33" />
    <path
       class="a"
       d="m 499.507,596.452 v 2.487 H 497.66 V 592.1 h 2.24 q 2.786,0 2.786,2.019 a 2.017,2.017 0 0 1 -1.159,1.837 l 1.991,2.978 h -2.094 l -1.449,-2.487 z m 0,-1.388 h 0.346 q 0.968,0 0.968,-0.855 0,-0.706 -0.949,-0.706 h -0.365 z"
       transform="translate(-163.1,-132.843)"
       id="path34" />
    <path
       class="a"
       d="M 581.026,594.639 582.2,592.1 h 2 l -2.249,4.165 v 2.669 H 580.1 v -2.613 l -2.248,-4.221 h 2.01 z"
       transform="translate(-220.709,-132.843)"
       id="path35" />
    <path
       class="a"
       d="M 662.848,598.939 V 592.1 h 1.846 v 5.343 h 2.632 v 1.491 z"
       transform="translate(-281.777,-132.843)"
       id="path36" />
    <path
       class="a"
       d="m 744.745,598.867 -0.336,-1.281 h -2.22 l -0.346,1.281 h -2.029 l 2.23,-6.862 h 2.463 l 2.258,6.862 z m -0.72,-2.8 -0.294,-1.122 q -0.1,-0.374 -0.25,-0.968 -0.15,-0.594 -0.194,-0.851 -0.042,0.238 -0.166,0.785 -0.124,0.547 -0.55,2.155 z"
       transform="translate(-337.071,-132.771)"
       id="path37" />
    <path
       class="a"
       d="m 833.431,598.939 h -2.421 l -2.5,-4.814 h -0.042 q 0.089,1.136 0.089,1.734 v 3.08 h -1.636 V 592.1 h 2.412 l 2.487,4.749 h 0.028 q -0.065,-1.033 -0.066,-1.66 V 592.1 h 1.645 z"
       transform="translate(-399.654,-132.843)"
       id="path38" />
    <path
       class="a"
       d="m 920.88,595.377 a 3.531,3.531 0 0 1 -0.942,2.636 3.618,3.618 0 0 1 -2.648,0.925 h -2.211 V 592.1 h 2.365 a 3.569,3.569 0 0 1 2.541,0.841 3.176,3.176 0 0 1 0.895,2.436 z m -1.917,0.065 a 2.173,2.173 0 0 0 -0.371,-1.393 1.376,1.376 0 0 0 -1.129,-0.453 h -0.537 v 3.828 h 0.411 a 1.489,1.489 0 0 0 1.234,-0.488 2.36,2.36 0 0 0 0.393,-1.494 z"
       transform="translate(-462.988,-132.843)"
       id="path39" />
  </g>
</svg>
