<?xml version="1.0" encoding="UTF-8"?>
<!-- Generator: Adobe Illustrator 12.0.0, SVG Export Plug-In  -->
<!DOCTYPE svg PUBLIC "-//W3C//DTD SVG 1.1//EN" "http://www.w3.org/Graphics/SVG/1.1/DTD/svg11.dtd" [
	<!ENTITY ns_flows "http://ns.adobe.com/Flows/1.0/">
	<!ENTITY ns_svg "http://www.w3.org/2000/svg">
	<!ENTITY ns_xlink "http://www.w3.org/1999/xlink">
]>
<svg version="1.1" xmlns="http://www.w3.org/2000/svg" xmlns:xlink="http://www.w3.org/1999/xlink" xmlns:a="http://ns.adobe.com/AdobeSVGViewerExtensions/3.0/" width="501" height="317" viewBox="-0.378 -0.624 501 317" enable-background="new -0.378 -0.624 501 317" xml:space="preserve">
<defs>
</defs>
<polygon opacity="0" fill-rule="evenodd" clip-rule="evenodd" fill="#FFFFFF" points="0,0 500,0 500,315.508 0,315.508 0,0"/>
<path fill-rule="evenodd" clip-rule="evenodd" fill="#0A357E" d="M472.147,34.647c-12.912-21.999-80.82-7.652-165.468,31.084  c4.306,3.349,8.609,7.174,11.956,11c65.041-27.737,115.253-36.344,125.776-18.173c11.956,20.565-35.392,71.735-111.431,122.428  l0.959,0.955C426.716,121.685,486.495,59.516,472.147,34.647L472.147,34.647L472.147,34.647z"/>
<path fill-rule="evenodd" clip-rule="evenodd" fill="#0A357E" d="M71.392,273.764c-7.174-12.914,8.13-37.303,38.736-66.474l0,0  c-2.391-0.48-4.781-1.437-7.173-2.393c-0.478,0-0.478-0.48-0.478-0.48c-2.39-0.955-4.782-1.911-7.174-2.866  C58.48,235.5,39.829,264.196,48.438,279.503c10.521,17.693,55.951,11.954,116.686-10.522l-0.477-0.956  C115.866,284.762,80,288.109,71.392,273.764L71.392,273.764L71.392,273.764z"/>
<path fill-rule="evenodd" clip-rule="evenodd" fill="#FD000D" d="M33.134,125.033c0-52.127,68.865-94.69,153.511-94.69  c85.124,0,153.99,42.563,153.99,94.69c0,52.605-68.866,95.167-153.99,95.167C101.999,220.199,33.134,177.638,33.134,125.033  L33.134,125.033L33.134,125.033L33.134,125.033z M120.171,51.386l29.174,98.993l0,0L179.95,38.472  C158.429,39.431,137.866,43.732,120.171,51.386L120.171,51.386L120.171,51.386L120.171,51.386z M178.515,92.514l-15.782,57.865  h32.042L178.515,92.514L178.515,92.514L178.515,92.514z M223.947,150.379l27.737-99.95c-18.172-7.174-38.736-11.479-60.257-11.957  L223.947,150.379L223.947,150.379L223.947,150.379L223.947,150.379z M119.694,150.379L103.91,92.514l-15.779,57.865H119.694  L119.694,150.379L119.694,150.379z M301.898,161.856c7.651-11,11.957-23.433,11.957-36.824c0-25.346-15.782-47.823-41.608-64.084  L301.898,161.856L301.898,161.856L301.898,161.856z M269.38,150.379l-16.26-57.865l-15.781,57.865H269.38L269.38,150.379  L269.38,150.379z M272.728,161.856H233.99l-3.346,12.434l9.085,29.646c14.825-4.303,28.214-10.998,39.215-19.123L272.728,161.856  L272.728,161.856L272.728,161.856z M134.519,203.937l-11.479-42.08H84.783l-3.349,11.953c13.391,13.39,31.563,23.913,53.084,30.607  V203.937L134.519,203.937L134.519,203.937z M198.124,161.856h-38.738l-12.434,45.908c12.434,2.872,25.826,4.304,39.693,4.304  c8.609,0,16.738-0.476,24.868-1.912L198.124,161.856L198.124,161.856L198.124,161.856z M98.651,62.863  c-23.911,15.78-38.736,37.781-38.736,62.17c0,13.391,4.303,25.346,11.477,36.345L98.651,62.863L98.651,62.863z"/>
</svg>