<svg xmlns="http://www.w3.org/2000/svg" viewBox="0 0 239.175 120.123"><defs><clipPath clipPathUnits="userSpaceOnUse" id="c"><path d="M0 0h612v792H0z"/></clipPath><clipPath clipPathUnits="userSpaceOnUse" id="b"><path d="M0 0h612v792H0z"/></clipPath><clipPath clipPathUnits="userSpaceOnUse" id="a"><path d="M0 0h612v792H0z"/></clipPath></defs><g clip-path="url(#a)" style="fill:#f60;fill-opacity:1" transform="matrix(5.62504 0 0 -5.62503 -334.843 1311.257)"><g style="fill:#f60;fill-opacity:1"><path d="M0 0a.266.266 0 0 0-.27-.27.265.265 0 0 0-.271.27c0 .154.117.27.271.27C-.118.27 0 .154 0 0m.052 0A.316.316 0 0 1-.27.322.315.315 0 0 1-.593 0c0-.183.139-.322.323-.322.181 0 .322.139.322.322m-.176.076c0 .073-.052.106-.115.106h-.154V-.17h.06v.136h.067l.069-.136h.071l-.071.142c.044.014.073.048.073.104m-.06-.002c0-.034-.024-.05-.057-.05h-.092v.101h.092c.033 0 .057-.018.057-.051" style="fill:#f60;fill-opacity:1;fill-rule:nonzero;stroke:none" transform="translate(100.471 226.975)"/></g></g><path d="M566.886 683.667H551.62v15.272h15.266z" style="fill:#f60;fill-opacity:1;fill-rule:nonzero;stroke:none" transform="translate(-327.71 -579.872)"/><g style="fill:#f60;fill-opacity:1"><path d="m0 0 1.617-12.134L3.231 0H5.75L3.394-14.803H-.188L-2.519 0z" style="fill:#f60;fill-opacity:1;fill-rule:nonzero;stroke:none" transform="matrix(5.62504 0 0 -5.62503 192.93 35.798)"/></g><g clip-path="url(#b)" style="fill:#f60;fill-opacity:1" transform="matrix(5.62504 0 0 -5.62503 -334.843 1311.257)"><g style="fill:#f60;fill-opacity:1"><path d="M0 0h-1.397v-1.967H0v-12.836h2.455v12.836H4.18V0H2.455v3.009c0 .439.091.775.303 1.005.213.228.538.336.979.336h.442v2.014h-.888c-1.091 0-2.142-.231-2.642-.706S0 4.446 0 3.396z" style="fill:#f60;fill-opacity:1;fill-rule:nonzero;stroke:none" transform="translate(60.924 226.747)"/></g></g><path d="M363.394 698.933h13.844v-83.267h-13.844z" style="fill:#f60;fill-opacity:1;fill-rule:nonzero;stroke:none" transform="translate(-327.71 -579.872)"/><g clip-path="url(#c)" style="fill:#f60;fill-opacity:1" transform="matrix(5.62504 0 0 -5.62503 -334.843 1311.257)"><g style="fill:#f60;fill-opacity:1"><path d="M0 0h5.13v4.562C5.124 7.291 3.812 8.41 1.326 8.41c-2.585 0-3.797-1.116-3.797-3.866v-7.497c.008-2.501 1.522-3.795 3.796-3.795S5.124-5.683 5.13-2.953v1.186H2.753l.003-1.405c0-1.002-.375-1.695-1.381-1.695C.367-4.867 0-4.168 0-3.171zm0 5.053c0 .835.217 1.7 1.368 1.7 1.15 0 1.383-.852 1.383-1.699V1.995H0z" style="fill:#f60;fill-opacity:1;fill-rule:nonzero;stroke:none" transform="translate(79.695 218.508)"/></g><g style="fill:#f60;fill-opacity:1"><path d="M0 0c-1.867 1.621-2.012 1.856-2.012 3.064 0 1.029.089 1.655 1.014 1.655.924 0 1.044-.618 1.044-1.667V1.685h2.372v2.23C2.41 5.666 1.063 6.556-1.053 6.556c-2.081 0-3.438-.693-3.45-3.492-.002-.476.001-.476 0-.292.004-.88.008-2.275 2.183-4.141l.624-.534C-.093-3.255.082-3.418.075-5.026.074-6.017.013-6.768-1.027-6.768s-1.105.757-1.105 1.224v1.894h-2.49v-1.954c0-2.405 1.565-3 3.592-3 2.029 0 3.596.601 3.596 3.695v.257C2.561-2.49 2.17-1.91 0 0" style="fill:#f60;fill-opacity:1;fill-rule:nonzero;stroke:none" transform="translate(73.865 220.36)"/></g><g style="fill:#f60;fill-opacity:1"><path d="M0 0v1.524h-2.243v-14.802h2.42v10.316C.176-2.165.436-1.64.888-1.33c.428.295.955.395 1.626.405v2.619C1.23 1.667.676 1.414.025.054z" style="fill:#f60;fill-opacity:1;fill-rule:nonzero;stroke:none" transform="translate(88.119 225.224)"/></g></g></svg>