<svg xmlns="http://www.w3.org/2000/svg" viewBox="0 0 148 30"><path style="fill:#0099d8;fill-opacity:1;fill-rule:nonzero;stroke:none" d="M-986.06 652.659c-.11 1.218-1.063 4.61-5.386 4.61-4.432 0-5.45-3.392-5.45-5.873 0-3.814 1.661-6.54 5.65-6.54 1.863 0 4.921.841 5.209 4.521h-3.148c-.133-.776-.62-1.993-2.06-1.906-1.95 0-2.462 1.95-2.462 3.413 0 1.286.045 3.835 2.395 3.835 1.575 0 2.105-1.507 2.105-2.06zm9.687-1.597c0 1.507-.444 3.592-2.839 3.592-2.39 0-2.836-2.085-2.836-3.592s.445-3.59 2.836-3.59c2.395 0 2.84 2.082 2.84 3.59m3.19 0c0-4.255-2.86-6.206-6.03-6.206-3.168 0-6.027 1.95-6.027 6.206s2.859 6.207 6.027 6.207c3.17 0 6.03-1.951 6.03-6.207m12.168 5.896h-3.101v-7.159c0-.865-.047-2.327-2.018-2.327-1.376 0-2.439.93-2.439 2.725v6.761h-3.102v-11.792h2.97v1.73h.044c.42-.71 1.308-2.04 3.547-2.04 2.304 0 4.099 1.353 4.099 3.946zm14.165-13.1h-8.447v3.346h7.757v2.817h-7.757v4.12h8.822v2.817h-12.078v-15.915h11.703zm4.675 7.293c0-1.862.665-3.613 2.637-3.613 2.129 0 2.66 1.906 2.66 3.79 0 1.75-.775 3.39-2.749 3.39-1.993 0-2.548-2.17-2.548-3.567m8.267-10.108h-3.101v5.652h-.045c-.486-.754-1.419-1.839-3.414-1.839-2.592 0-4.897 1.995-4.897 6.074 0 3.235 1.461 6.339 4.963 6.339 1.287 0 2.66-.468 3.414-1.796h.045v1.485h3.035zm5.297-.154h-3.101v2.881h3.101zm-3.101 16.069h3.101v-11.793h-3.101zm12.076-8.201c-.13-.753-.397-1.553-2.08-1.553-1.686 0-1.906.644-1.906 1.155 0 1.862 7.379.509 7.379 4.853 0 3.435-3.325 4.057-5.161 4.057-2.684 0-5.587-.931-5.677-4.078h3.193c0 .997.62 1.728 2.571 1.728 1.595 0 1.971-.777 1.971-1.22 0-1.971-7.313-.487-7.313-4.897 0-1.729 1.086-3.946 4.766-3.946 2.305 0 5.051.576 5.296 3.9zm13.169 2.305c0 1.507-.442 3.592-2.837 3.592s-2.837-2.085-2.837-3.592.443-3.59 2.837-3.59 2.837 2.082 2.837 3.59m3.191 0c0-4.255-2.858-6.206-6.028-6.206s-6.028 1.95-6.028 6.206 2.859 6.207 6.028 6.207c3.17 0 6.028-1.951 6.028-6.207m12.168 5.896h-3.103v-7.159c0-.865-.045-2.327-2.017-2.327-1.374 0-2.438.93-2.438 2.725v6.761h-3.102v-11.792h2.97v1.73h.045c.419-.71 1.306-2.04 3.546-2.04 2.304 0 4.099 1.353 4.099 3.946zm-111.546 2.37h-19.307c-5.703 0-10.342-4.64-10.342-10.343s4.639-10.342 10.342-10.342h19.307v-3.598h-19.307c-7.688 0-13.942 6.253-13.942 13.94 0 7.688 6.254 13.943 13.942 13.943h19.307z" transform="translate(1037.245 -633.887)"/><path style="fill:#0099d8;fill-opacity:1;fill-rule:nonzero;stroke:none" d="M-1029.674 649.014c0 4.419 3.595 8.015 8.014 8.015h18.98v-3.598h-18.98a4.42 4.42 0 0 1-4.415-4.417 4.42 4.42 0 0 1 4.415-4.416h18.98v-3.599h-18.98c-4.419 0-8.014 3.597-8.014 8.015" transform="translate(1037.245 -633.887)"/><path style="fill:#0099d8;fill-opacity:1;fill-rule:nonzero;stroke:none" d="M-1002.653 647.202h-19.127a1.799 1.799 0 0 0 0 3.599h19.127z" transform="translate(1037.245 -633.887)"/></svg>