<?xml version="1.0" encoding="UTF-8"?>
<svg id="SVGRoot" width="500" height="193.83" version="1.1" viewBox="0 0 500.00006 193.83374" xmlns="http://www.w3.org/2000/svg" xmlns:cc="http://creativecommons.org/ns#" xmlns:dc="http://purl.org/dc/elements/1.1/" xmlns:rdf="http://www.w3.org/1999/02/22-rdf-syntax-ns#" xmlns:xlink="http://www.w3.org/1999/xlink"><defs><radialGradient id="radialGradient10405" cx="0" cy="0" r="1" gradientTransform="matrix(92.104 0 0 -92.104 599.69 258.62)" gradientUnits="userSpaceOnUse"><stop stop-color="#fff" offset="0"/><stop stop-color="#e0f5fd" offset=".21001"/><stop stop-color="#8fd9f7" offset=".44"/><stop stop-color="#0994dc" offset=".78"/><stop stop-color="#00adef" offset="1"/></radialGradient><radialGradient id="radialGradient10737" cx="0" cy="0" r="1" gradientTransform="matrix(92.104 0 0 -92.104 598.81 258.83)" gradientUnits="userSpaceOnUse"><stop stop-color="#dff5fd" offset="0"/><stop stop-color="#c5ecfb" offset=".21001"/><stop stop-color="#81d4f6" offset=".44"/><stop stop-color="#109ae0" offset=".78"/><stop stop-color="#09b0f0" offset="1"/></radialGradient><linearGradient id="linearGradient15566" x1="702.85" x2="702.85" y1="-208.47" y2="-266.22" gradientTransform="matrix(1.0037 0 0 1.0037 -117.98 549.38)" gradientUnits="userSpaceOnUse"><stop stop-color="#279fe0" offset="0"/><stop stop-color="#c1e9fa" offset="1"/></linearGradient><radialGradient id="radialGradient15574" cx="677.55" cy="-185.29" r="14.359" gradientTransform="matrix(.89879 0 0 .89817 -48.39 531.33)" gradientUnits="userSpaceOnUse"><stop stop-color="#a8e3f9" offset="0"/><stop stop-color="#a8e3f9" offset=".46888"/><stop stop-color="#76bfeb" offset=".62569"/><stop stop-color="#5d98d7" offset=".75636"/><stop stop-color="#386cab" offset=".88704"/><stop stop-color="#93b5e3" offset="1"/></radialGradient><linearGradient id="linearGradient15526" x1="740.89" x2="740.89" y1="-227.18" y2="-286" gradientTransform="matrix(1.0037 0 0 1.0037 -122.25 552.39)" gradientUnits="userSpaceOnUse" xlink:href="#linearGradient15524"/><linearGradient id="linearGradient15524"><stop stop-color="#0d9ae0" offset="0"/><stop stop-color="#a6e0f8" offset="1"/></linearGradient><linearGradient id="linearGradient15544" x1="725.32" x2="725.32" y1="-217.15" y2="-281.9" gradientTransform="matrix(1.0037 0 0 1.0037 -122 551.89)" gradientUnits="userSpaceOnUse"><stop stop-color="#3db7ec" offset="0"/><stop stop-color="#dbf3fc" offset="1"/></linearGradient><linearGradient id="linearGradient17397" x1="496.51" x2="506.66" y1="117.56" y2="107.99" gradientTransform="matrix(.70093 0 0 .70093 206.61 288.46)" gradientUnits="userSpaceOnUse"><stop stop-color="#20b6ec" offset="0"/><stop stop-color="#fff" stop-opacity="0" offset="1"/></linearGradient><linearGradient id="linearGradient17403" x1="740.89" x2="740.89" y1="-227.18" y2="-286" gradientTransform="matrix(-.78136 -.039592 .039592 -.78136 1168.9 62.331)" gradientUnits="userSpaceOnUse" xlink:href="#linearGradient15524"/></defs><metadata><rdf:RDF><cc:Work rdf:about=""><dc:format>image/svg+xml</dc:format><dc:type rdf:resource="http://purl.org/dc/dcmitype/StillImage"/><dc:title/></cc:Work></rdf:RDF></metadata><g transform="translate(-157.26 -198.25)"><g fill="#72c4ea" stroke-width="5.2426"><path d="m456.59 366.49c0 6.9307 3.9424 11.356 11.088 11.356 2.7209 0 4.8284-0.26737 6.7263-0.81784l-0.27262-7.2034c-0.94891 0.60815-2.5112 0.94892-4.1417 0.94892-3.4706 0-4.2885-2.7891-4.2885-5.7826v-16.32h8.0998v-6.6634h-8.0998v-9.9295l-9.1117 2.9254v7.0041h-6.7368v6.6634h6.7368z"/><path d="m482.44 356.11c0.40892-4.6974 2.9935-8.2309 8.0946-8.2309 5.1011 0 7.1352 3.8114 7.4078 8.2309zm21.626 11.56c-3.3972 1.9031-7.2086 3.5335-11.628 3.5335-5.6411 0-9.5888-3.1928-9.9977-8.839h24.216c0-12.242-3.6803-21.149-16.666-21.149-10.878 0-16.252 8.3672-16.252 18.501 0 11.487 6.7315 18.155 18.291 18.155 4.8966 0 8.708-0.95415 12.037-2.7838z" fill-rule="evenodd"/><path d="m509.91 377.03h9.1117v-12.855c0-5.0329 0-14.276 7.4131-14.276 1.6305 0 3.2662 0.26737 4.084 0.74445v-9.1798c-0.95416-0.27262-1.9083-0.27262-2.7943-0.27262-5.4366 0-9.1798 5.5048-9.5835 8.7709h-0.13631v-7.9583h-8.0946z"/><path d="m426.29 366.02c0-3.8795 3.1456-7.0304 7.0304-7.0304h7.0356v7.0304c0 3.89-3.1508 7.0356-7.0356 7.0356-3.8848 0-7.0304-3.1456-7.0304-7.0356m-4.645-14.37c3.0564-2.312 6.936-3.8061 10.81-3.8061 5.3737 0 7.8954 1.9031 7.8954 7.5441h-5.0382c-3.8061 0-8.2938 0.34601-11.764 2.0499-3.4654 1.6934-5.9871 4.755-5.9871 9.9924 0 6.6686 6.0552 10.407 12.242 10.407 4.1469 0 8.708-2.1757 10.816-6.0552h0.1363c0.0682 1.0905 0.0682 3.4025 0.40893 5.2374h8.0212c-0.20446-2.7209-0.34077-5.1692-0.40892-7.822-0.0629-2.5794-0.13107-5.2321-0.13107-8.7709v-4.4877c0-10.338-4.4248-14.758-15.099-14.758-3.8795 0-8.6346 1.0223-12.173 2.6528z" fill-rule="evenodd"/><path d="m409.78 342.01-7.2768 25.914h-0.13631l-7.6175-25.914h-10.606l-7.0775 25.914h-0.13631l-7.7486-25.914h-7.3502c3.004 2.8572 4.7026 7.2348 4.7026 12.923v7.8325l4.8232 14.27h10.401l7.4865-26.732h0.13106l7.6175 26.732h10.747l10.747-35.026z"/></g><g fill="#92278f"><g stroke-width="2.9491"><path d="m167.61 308.55c2.5539 0 3.2352-1.277 3.2352-2.0319 0-0.84345-0.58982-1.1443-1.4834-0.9909l-0.57212 0.0619c-5.0459 0-5.7419-11.823-5.7419-24.602 0-12.602 1.1708-17.329 1.7341-19.6 0.19464-0.79036 0.32145-1.3124 0.32145-1.799 0-1.1885-1.2917-1.1885-1.7813-1.1885-1.3654 0-3.2529 0.71664-4.0609 2.7397-0.64586 1.6132-1.2327 8.3165-1.2327 14.064 0 24.619 2.5067 33.346 9.5817 33.346"/><path d="m179.68 277.8c0.47186 0 0.76087 0.25362 1.0941 0.54854 0.34505 0.3067 0.74023 0.6547 1.3684 0.6547 0.86704 0 2.0378-0.63996 2.5628-2.433 5.798-0.87294 9.8943 4.0963 9.8943 11.785 0 6.0457-3.8191 12.304-10.204 12.304-5.8038 0-9.5522-5.0194-9.5522-12.784 0-6.1519 3.1762-10.074 4.8366-10.074m3.2765 26.35c7.7208 0 16.028-5.5709 16.028-17.804 0-7.6205-5.0341-13.368-11.711-13.368-1.3713 0-2.4832 0.31555-3.3856 0.96141-0.69894-0.63111-1.5158-0.96141-2.377-0.96141-3.7778 0-11.186 5.0636-11.186 16.775 0 8.7471 4.9575 14.398 12.631 14.398"/><path d="m214.1 305.64c7.1516 0 13.917-13.761 13.917-28.317 0-3.9253-1.7872-6.5647-4.4502-6.5647-2.2 0-3.6245 1.2593-3.6245 3.2116 0 1.392 1.448 1.392 2.0703 1.392 0.80805 0 1.6309 0.41582 1.6309 3.477 0 9.909-5.0636 23.05-8.8798 23.05-2.2679 0-5.8717-4.7068-5.8717-17.335 0-4.9309 0.48071-6.7948 0.68715-7.591 0.0678-0.25363 0.10616-0.42173 0.10616-0.57508 0-0.62816-0.1504-1.2121-1.2652-1.2121-2.5215 0-4.6508 2.2177-4.6508 4.8424 0 17.241 3.3797 25.622 10.331 25.622"/><path d="m245.35 274.81c1.1443 0 1.3153 1.041 1.3153 1.6633 0 4.7127-3.766 9.968-9.216 12.92 0.85524-9.7114 5.4912-14.583 7.9007-14.583m-1.2947 30.697c9.4165 0 17.099-9.502 17.099-11.82 0-0.79036-0.55149-1.3418-1.3418-1.3418-0.33325 0-0.69304 0.38928-1.6898 1.5158-0.97026 1.103-2.3062 2.61-3.8958 3.8545-3.3797 2.6454-6.8331 4.0432-9.9916 4.0432-4.0521 0-6.6856-3.2529-6.9068-8.5023 6.4762-2.8223 13.952-8.9004 13.952-16.884 0-3.5065-1.7459-5.4382-4.9073-5.4382-7.6264 0-13.831 9.4313-13.831 21.024 0 10 6.2049 13.548 11.513 13.548"/></g><g stroke-width="2.9517"><path d="m316.73 280.26 0.34535 0.27746c0.81466 0.71726 1.225 1.9393 1.225 3.6335 0 7.878-4.7079 18.324-8.2559 18.324-2.3879 0-5.6908-7.1696-5.6908-20.632 0-4.4748 0.23614-6.7505 0.36306-7.9725 0.0531-0.50769 0.0915-0.85894 0.0915-1.1334 0-0.96816-0.42209-1.4404-1.2869-1.4404-1.1895 0-4.3478 2.0367-4.3478 4.4807 0 20.494 3.5391 30.455 10.821 30.455 5.0858 0 12.63-10.08 12.63-24 0-3.8018-1.6677-6.1631-4.3508-6.1631-1.3962 0-2.8808 0.79695-2.8808 2.2698 0 0.87075 0.77334 1.467 1.3371 1.9009"/><path d="m286.25 274.15c1.9688 0 2.7362 0.82057 2.7362 2.9251 0 4.4364-5.1684 9.1827-12.344 11.379 0.40438-9.3923 6.4317-14.304 9.6077-14.304m-2.3141 31.654c6.5675 0 12.713-4.2239 12.713-6.1425 0-0.57558-0.13873-1.343-1.3401-1.343-0.4339 0-0.96815 0.36305-1.7769 0.91207-1.6972 1.1482-4.5279 3.0727-8.8226 3.0727-5.0503 0-8.0109-3.8431-8.1496-10.561 9.6992-1.8271 16.981-8.2529 16.981-15.012 0-3.9936-2.6004-6.4701-6.7889-6.4701-6.9571 0-15.042 8.5776-15.042 19.638 0 11.727 6.3166 15.907 12.226 15.907"/><path d="m340.33 275.82c1.1954 0 1.8005 0.72611 1.8005 2.1606 0 5.1241-4.1117 10.104-10.05 12.226 0.66413-9.8114 5.2865-14.387 8.25-14.387m-13.244 16.686c0 8.1466 3.911 13.209 10.21 13.209 8.6927 0 15.316-9.2712 15.316-13.911 0-0.79105-0.55196-1.3401-1.343-1.3401-0.68183 0-1.0183 0.69955-1.5762 1.8655-0.4457 0.92978-1.0538 2.202-2.0957 3.6808-1.6028 2.2787-5.4636 6.1306-9.7642 6.1306-4.8172 0-5.744-5.1271-5.8532-8.3326 9.1916-3.0461 14.891-9.0971 14.891-15.827 0-3.6719-2.2344-5.9506-5.8384-5.9506-6.7623 0-13.947 7.1755-13.947 20.476"/><path d="m364.97 291.24c0-12.5 8.1762-19.242 11.52-19.242 0.82056 0 1.2928 0.47817 1.7917 0.98291 0.48112 0.48702 0.97701 0.98586 1.7622 0.98586 1.529 0 2.6831-1.1128 2.6831-2.5886 0-2.2344-2.565-3.4033-5.0946-3.4033-5.6584 0-12.92 5.3042-15.499 16.949l-0.0856-0.28041c-3.3797-9.4513-4.8821-11.116-6.7859-11.116-1.0567 0-3.1288 0.90912-3.1288 2.0071 0 0.37782 0.13578 0.54902 0.38667 0.85894 0.24794 0.31288 0.66708 0.83238 1.3194 2.013 2.6536 4.7788 4.7581 9.8616 7.0575 20.423l0.22728 1.1069c0.34535 1.7031 0.51655 2.5562 1.4788 2.5562 1.5614 0 3.1347-0.82352 3.1347-2.3968 0-0.76153-0.12397-1.6825-0.27156-2.751-0.22137-1.6057-0.49588-3.607-0.49588-6.1041"/><path d="m402.49 270.11c-1.4522-3.4387-2.019-4.5515-3.1849-4.5515-1.7681 0-3.8077 1.405-3.8077 2.323 0 0.42799 0.29517 0.85008 0.7084 1.4316 0.82647 1.1571 2.0721 2.9074 2.0721 6.2576 0 10.821-8.0935 25.662-10.948 25.662-0.92093 0-2.4735-1.5614-2.4735-12.022 0-7.8338 0.72021-11.243 0.99177-12.527 0.0738-0.33944 0.11216-0.5254 0.11216-0.65822 0-0.35125 0-1.1748-1.0774-1.1866-1.0095 0-4.4157 1.2279-4.5958 3.9434-0.20367 3.1494-0.30403 5.862-0.30403 8.2883 0 12.477 2.0514 18.041 6.6531 18.041 4.463 0 10.954-7.9223 14.398-22.628 1.5349 5.1448 2.9045 16.677 2.9045 21.488 0 8.8049-3.4122 19.086-13.026 19.086-6.8715 0-12.394-4.1412-16.878-12.66-0.26566-0.50179-0.45751-0.9652-0.62871-1.3725-0.43685-1.0478-0.78515-1.8773-1.8625-1.8773-1.1423 0-1.9097 0.80877-1.9097 2.013 0 5.2924 7.9046 17.329 20.924 17.329 8.2322 0 18.05-4.2062 18.05-24.254 0-12.185-3.0727-24.912-6.1188-32.126"/></g><g stroke-width="2.9429"><path d="m493.52 298.4c-6.2065 0-8.4166-5.5502-8.4166-10.744 0-8.4725 5.9475-12.313 7.7544-12.313 0.53854 0 0.83871 0.0824 1.1271 0.15892 0.27663 0.0765 0.56209 0.15303 1.0153 0.15303 1.1124 0 2.2778-0.96526 2.5485-2.0659 0.52383-0.12654 1.0506-0.19129 1.598-0.19423 4.0847 0 6.7244 3.9876 6.7244 10.162 0 7.7692-5.8857 14.844-12.351 14.844m6.389-28.296c-1.4479 0-2.5691 0.29723-3.2666 0.87109-0.412-0.17657-0.90934-0.25014-1.648-0.25014-5.0794 0-14.452 7.4189-14.452 17.99 0 6.4743 3.5314 13.007 11.421 13.007 7.7397 0 18.534-7.5632 18.534-19.885 0-7.1306-4.1553-11.733-10.588-11.733"/><path d="m482.31 272.59c1.2625 0 2.9605-1.3773 2.9605-2.7839 0-1.7863-1.9688-2.7192-3.914-2.7192-5.6061 0-12.793 5.2412-15.338 16.757l-0.0706-0.2884c-2.3102-8.4048-3.9228-10.091-5.7739-10.091-1.033 0-3.3078 1.0153-3.3078 2.1041 0 0.2678 0.19718 0.51795 0.54738 0.97703 0.91817 1.1948 3.0694 3.9905 4.9411 11.489 0.79162 3.1665 1.7127 9.2288 2.263 13.458 0.0765 0.58562 0.22072 1.2066 0.99763 1.2066 1.5097 0 3.196-1.1919 3.196-2.9046 0-0.76809-0.0471-1.7304-0.10595-2.8605-0.0795-1.5833-0.18245-3.555-0.18245-5.7827 0-12.996 8.4872-20.138 11.301-20.138 0.31195 0 0.45909 0.1854 0.70923 0.54148 0.30312 0.43849 0.721 1.0359 1.7775 1.0359"/><path d="m427.68 299.2c-0.99174 0-2.1277-0.34726-2.1277-3.04 0-8.8698 9.7938-23.343 17.531-23.343 2.728 0 3.1371 2.3808 3.1371 3.7992 0 7.3866-12.475 22.584-18.54 22.584m29.932 1.7392-0.43555 0.0471c-0.15891 0.0294-0.34725 0.0618-0.69157 0.0618-4.1671 0-5.6473-14.09-5.6473-26.159 0-13.196 0.60034-19.529 0.8858-22.572 0.10005-1.0065 0.15891-1.6716 0.15891-2.1248 0-1.183-1.2919-1.183-1.7775-1.183-1.2213 0-3.2224 0.88286-3.5697 2.2719-0.31489 1.2713-0.37375 6.8892-0.37375 18.958-0.9476-0.36786-2.0806-0.55326-3.3725-0.55326-10.229 0-21.892 14.429-21.892 27.086 0 3.8993 1.8305 6.2242 4.8999 6.2242 7.2483 0 16.315-8.6255 20.921-16.91 1.0859 12.513 3.7669 18.349 8.4078 18.349 1.8864 0 3.2607-1.1212 3.2607-2.6633 0-0.49146-0.31783-0.83283-0.77397-0.83283"/><path d="m520.1 297.17 0.0235-1.0006c0.0471-2.3602 0.0912-4.3966 0.3914-6.3566 1.7216-11.15 12.825-17.922 17.251-17.922 2.7486 0 4.329 1.4567 4.329 3.9964 0 8.4372-11.045 19.081-21.995 21.283m18.722-28.61c-7.9075 0-14.176 5.974-17.13 10.173 0.62977-3.8934 1.2978-6.6273 1.7157-8.3224 0.29723-1.2007 0.4738-1.9246 0.4738-2.3455 0-0.4532-0.29134-1.2125-2.2424-1.2125-1.2036 0-3.5579 0.36491-3.8581 1.7539-0.27957 1.2949-2.4043 18.94-2.4043 35.414 0 15.194 1.5774 19.826 6.7568 19.826 2.316 0 4.2701-2.0894 4.2701-3.399 0-0.95054-0.60034-1.0918-0.95937-1.0918-0.37668 0-0.76514 0.19717-1.1683 0.40317-0.4532 0.23249-0.91523 0.47086-1.4008 0.47086-1.804 0-2.8458-2.9046-2.8458-17.748l9e-3 -1.9335c12.025-1.3213 26.574-12.996 26.574-24.932 0-4.1553-3.2018-7.057-7.7897-7.057"/></g></g><g fill="#08569b" stroke-width="5.2426"><path d="m165.98 365.98c0-3.8795 3.1508-7.0304 7.0356-7.0304h7.0356v7.0304c0 3.89-3.1508 7.0356-7.0356 7.0356s-7.0356-3.1456-7.0356-7.0356m-4.645-14.37c3.0617-2.312 6.936-3.8061 10.816-3.8061 5.3737 0 7.8901 1.9031 7.8901 7.5441h-5.0382c-3.8061 0-8.2938 0.34601-11.759 2.0499-3.4706 1.6934-5.9871 4.755-5.9871 9.9924 0 6.6686 6.05 10.407 12.242 10.407 4.1469 0 8.708-2.1757 10.816-6.0552h0.13106c0.0682 1.0905 0.0682 3.4025 0.40893 5.2374h8.0264c-0.20446-2.7209-0.34601-5.1692-0.40892-7.822-0.0629-2.5794-0.13631-5.2321-0.13631-8.7709v-4.4877c0-10.338-4.4195-14.758-15.099-14.758-3.8743 0-8.6346 1.0223-12.168 2.6528z" fill-rule="evenodd"/><path d="m193.2 376.99h9.1117v-17.138c0-4.4877 1.4312-11.633 8.0317-11.633 5.8403 0 5.9084 5.7826 5.9084 10.071v18.7h9.1169v-22.103c0-7.8901-3.6069-13.736-11.901-13.736-4.7655 0-8.6398 1.5623-11.492 5.5729h-0.13631v-4.7603h-8.6398z"/><path d="m245.68 369.91c-5.2374 0-7.7538-5.8508-7.7538-10.611 0-5.3684 1.9712-11.088 8.1575-11.088 5.3055 0 7.6175 4.9018 7.6175 10.884 0 5.8508-2.312 10.816-8.0212 10.816m8.4301-27.954v4.7603h-0.1363c-2.5165-4.0106-6.1181-5.5729-10.742-5.5729-10.475 0-14.826 9.7198-14.826 18.155 0 9.3895 3.9424 17.683 14.281 17.683 5.1011 0 9.1798-2.5898 10.884-5.5781h0.13106c0 6.0552-0.47183 13.605-10.538 13.605-2.8625 0-7.413-1.5675-10.202-3.0617l-0.7497 7.7486c4.3514 1.8402 8.5035 2.3854 12.105 2.3854 14.69 0 18.501-8.9806 18.501-18.501v-31.623z" fill-rule="evenodd"/><path d="m268.33 377.03h9.1169v-51.005h-9.1169z"/><path d="m283.12 377.03h9.1117v-35.026h-9.1117zm0-41.417h9.1117v-8.708h-9.1117z" fill-rule="evenodd"/><path d="m304.21 365.98c0-3.8795 3.1456-7.0304 7.0304-7.0304h7.0356v7.0304c0 3.89-3.1508 7.0356-7.0356 7.0356-3.8848 0-7.0304-3.1456-7.0304-7.0356m-4.645-14.37c3.0617-2.312 6.936-3.8061 10.816-3.8061 5.3684 0 7.8901 1.9031 7.8901 7.5441h-5.0382c-3.8114 0-8.2938 0.34601-11.764 2.0499-3.4654 1.6934-5.9818 4.755-5.9818 9.9924 0 6.6686 6.05 10.407 12.242 10.407 4.1469 0 8.7028-2.1757 10.81-6.0552h0.1363c0.0682 1.0905 0.0682 3.4025 0.40893 5.2374h8.0212c-0.19922-2.7209-0.34077-5.1692-0.40368-7.822-0.0682-2.5794-0.13631-5.2321-0.13631-8.7709v-4.4877c0-10.338-4.4195-14.758-15.099-14.758-3.8795 0-8.6346 1.0223-12.173 2.6528z" fill-rule="evenodd"/><path d="m331.43 376.99h9.1117v-17.138c0-4.4877 1.4312-11.633 8.0264-11.633 5.8455 0 5.9137 5.7826 5.9137 10.071v18.7h9.1117v-22.103c0-7.8901-3.6017-13.736-11.895-13.736-4.7603 0-8.6398 1.5623-11.492 5.5729h-0.14155v-4.7603h-8.6346z"/></g><g fill="#0073bc" stroke-width="5.2426"><path d="m165.98 365.98c0-3.8795 3.1508-7.0304 7.0356-7.0304h7.0356v7.0304c0 3.89-3.1508 7.0356-7.0356 7.0356s-7.0356-3.1456-7.0356-7.0356m-4.645-14.37c3.0617-2.312 6.936-3.8061 10.816-3.8061 5.3737 0 7.8901 1.9031 7.8901 7.5441h-5.0382c-3.8061 0-8.2938 0.34601-11.759 2.0499-3.4706 1.6934-5.9871 4.755-5.9871 9.9924 0 6.6686 6.05 10.407 12.242 10.407 4.1469 0 8.708-2.1757 10.816-6.0552h0.13106c0.0682 1.0905 0.0682 3.4025 0.40893 5.2374h8.0264c-0.20446-2.7209-0.34601-5.1692-0.40892-7.822-0.0629-2.5794-0.13631-5.2321-0.13631-8.7709v-4.4877c0-10.338-4.4195-14.758-15.099-14.758-3.8743 0-8.6346 1.0223-12.168 2.6528z" fill-rule="evenodd"/><path d="m193.2 376.99h9.1117v-17.138c0-4.4877 1.4312-11.633 8.0317-11.633 5.8403 0 5.9084 5.7826 5.9084 10.071v18.7h9.1169v-22.103c0-7.8901-3.6069-13.736-11.901-13.736-4.7655 0-8.6398 1.5623-11.492 5.5729h-0.13631v-4.7603h-8.6398z"/><path d="m245.68 369.91c-5.2374 0-7.7538-5.8508-7.7538-10.611 0-5.3684 1.9712-11.088 8.1575-11.088 5.3055 0 7.6175 4.9018 7.6175 10.884 0 5.8508-2.312 10.816-8.0212 10.816m8.4301-27.954v4.7603h-0.1363c-2.5165-4.0106-6.1181-5.5729-10.742-5.5729-10.475 0-14.826 9.7198-14.826 18.155 0 9.3895 3.9424 17.683 14.281 17.683 5.1011 0 9.1798-2.5898 10.884-5.5781h0.13106c0 6.0552-0.47183 13.605-10.538 13.605-2.8625 0-7.413-1.5675-10.202-3.0617l-0.7497 7.7486c4.3514 1.8402 8.5035 2.3854 12.105 2.3854 14.69 0 18.501-8.9806 18.501-18.501v-31.623z" fill-rule="evenodd"/><path d="m268.33 377.03h9.1169v-51.005h-9.1169z"/><path d="m283.12 377.03h9.1117v-35.026h-9.1117zm0-41.417h9.1117v-8.708h-9.1117z" fill-rule="evenodd"/><path d="m304.21 365.98c0-3.8795 3.1456-7.0304 7.0304-7.0304h7.0356v7.0304c0 3.89-3.1508 7.0356-7.0356 7.0356-3.8848 0-7.0304-3.1456-7.0304-7.0356m-4.645-14.37c3.0617-2.312 6.936-3.8061 10.816-3.8061 5.3684 0 7.8901 1.9031 7.8901 7.5441h-5.0382c-3.8114 0-8.2938 0.34601-11.764 2.0499-3.4654 1.6934-5.9818 4.755-5.9818 9.9924 0 6.6686 6.05 10.407 12.242 10.407 4.1469 0 8.7028-2.1757 10.81-6.0552h0.1363c0.0682 1.0905 0.0682 3.4025 0.40893 5.2374h8.0212c-0.19922-2.7209-0.34077-5.1692-0.40368-7.822-0.0682-2.5794-0.13631-5.2321-0.13631-8.7709v-4.4877c0-10.338-4.4195-14.758-15.099-14.758-3.8795 0-8.6346 1.0223-12.173 2.6528z" fill-rule="evenodd"/><path d="m331.43 376.99h9.1117v-17.138c0-4.4877 1.4312-11.633 8.0264-11.633 5.8455 0 5.9137 5.7826 5.9137 10.071v18.7h9.1117v-22.103c0-7.8901-3.6017-13.736-11.895-13.736-4.7603 0-8.6398 1.5623-11.492 5.5729h-0.14155v-4.7603h-8.6346z"/></g><g stroke-width="3.4385"><path d="m657.26 247.03c0 42.194-41.393 92.438-83.587 108.05 34.392-36.826-13.974-68.533-13.974-108.05 0-26.937 21.841-48.779 48.779-48.779 26.941 0 48.782 20.655 48.782 48.779" fill="#1e5cb1"/><path d="m608.49 206.67c-21.997 0.0516-40.367 13.241-39.967 41.75 0.49374 35.166 31.031 60.417 25.051 87.298 21.865-16.475 57.456-42.542 57.456-87.298 0-23.578-19.146-41.75-42.433-41.75z" fill="url(#radialGradient10405)"/><path d="m577.99 220.98c-1.6264 1.6436-3.0809 3.2735-4.3669 4.9274-3.466 7.2518-5.1509 15.556-4.9824 23.853 0.0859 4.0368-0.73584 5.7561-1.7124 6.1206 1.2894 9.2702 4.7417 19.015 9.7 29.224 5.3572 11.031 12.324 20.982 15.212 31.717-1.3032-12.764-7.2965-22.729-8.9917-26.342-8.6994-18.626-12.413-28.227-12.616-37.108v-1.5267c0.0207-0.74271 0.0584-1.482 0.12035-2.2282 0.35417-8.2181 4.838-12.179 9.2427-12.179 5.0134 0 9.9201 5.1131 8.5447 14.885-1.1106 12.059 3.1428 26.872 6.2375 39.632 1.2929 5.3366 2.658 11.939 2.7783 19.125v2.0253c-0.11347 6.6707-1.3754 13.778-4.7864 20.803-0.15816 0.71177-0.34385 1.4304-0.55016 2.1559 0 0 1.2482-0.80805 3.3113-2.2213 4.2431-7.747 9.7585-22.374 10.959-47.194 1.2516-13.042 5.6701-17.887 9.7-17.956h0.16848c3.7789 0.0619 7.1727 4.305 7.2278 9.872v0.27165c-7e-3 0.46076-0.0343 0.93183-0.0825 1.4098-2.2901 21.057-14.672 39.608-23.623 50.55 2.5067-1.7983 5.4363-3.9715 8.4966-6.3819 7.6782-9.7791 19.266-27.333 23.176-48.191 1.5645-8.359 4.5938-11.615 7.2724-11.615 3.913 0 7.0799 6.9286 3.8855 15.092-3.1428 8.0255-11.168 21.236-21.628 33.646 2.3382-2.3141 4.4873-4.6626 6.2787-6.9664 10.598-13.654 17.169-27.749 20.081-41.193-0.34042-6.7498-3.301-15.618-9.927-22.567 0.0275 0.16849 0.055 0.33011 0.0825 0.49859-0.18225-0.29571-0.37137-0.62924-0.57424-1.004-6.1068-6.1515-15.188-10.683-27.99-10.683-2.0322 0-4.1572 0.11347-6.3819 0.35073-4.0815 0.44013-7.4822 0.63268-10.305 0.63268-9.1189 0-12.193-1.984-12.747-3.944-0.62925-2.1972 0.90434-5.2747 4.2981-8.0771-2.431-0.21663-3.3147-0.96623-1.7983-2.7646-1.2826 1.0316-2.5239 2.1491-3.7102 3.3526" fill="url(#radialGradient10737)"/></g><g><path d="m583.94 281.87c0.8837 1.9428 1.8302 3.992 2.8446 6.1617 2.7302 5.8248 16.649 28.178 4.0366 52.152 7.6335-9.7379 10.102-20.059 10.271-29.532v-2.0291c-0.12036-7.1762-1.3142-13.774-2.6174-19.114-0.60518-2.4792-1.2483-5.0349-1.8879-7.6379z" fill="url(#linearGradient15566)" stroke-width="3.4385"/><path d="m560.57 352.01c-7.1218 0-12.894 5.7805-12.894 12.899 0 7.1403 5.7722 12.894 12.894 12.894 7.1403 0 12.898-5.7754 12.917-12.894-0.0179-7.1187-5.7765-12.899-12.917-12.899z" fill="url(#radialGradient15574)" stroke-width="3.079"/><path d="m638.1 265.17c-0.88979-0.11326-2.0621 0.60132-2.5584 1.0077-1.6558 1.3556-3.6386 4.8622-4.7149 10.608-0.77194 3.5589-1.6514 7.3183-2.6329 10.428-0.8955 2.8369-1.9578 5.674-2.9289 8.03-1.3039 3.1636-2.6305 5.9756-4.1777 8.9612-1.7654 3.4066-3.8131 6.9057-5.7323 9.9198-2.3835 3.7434-5.1561 7.5662-7.7026 10.851 4.2534-3.3491 9.024-6.9078 12.706-11.069 10.252-11.586 18.226-24.187 21.153-32.483 0.9308-2.6374 1.6808-5.5151 1.784-7.9712 0.0952-2.2676-0.56737-4.226-1.4056-5.6637-0.96007-1.6466-2.2663-2.4252-3.7895-2.6191z" fill="url(#linearGradient15526)" stroke-width="3.4385"/><path d="m611.89 321.96c0.91303-0.73319 1.0466-0.75272 3.9174-3.1588 1.5594-1.3069 3.0853-2.6036 4.5141-3.8897 1.6578-1.4923 3.2042-2.9602 4.2748-4.021-0.59186 0.70386-0.94897 1.1754-2.4498 2.8312-1.1103 1.2249-2.5522 2.8355-3.8617 4.2397-1.252 1.3424-2.5354 2.5807-3.5187 3.5455-1.2443 1.2208-2.9036 2.8806-4.6669 4.3437-1.5467 1.2833-3.5783 3.0331-5.3761 4.4231 0.61008-0.59332 1.8248-2.0002 2.3384-2.5011 1.0499-1.0239 2.1662-2.4742 2.1662-2.4742 0.92207-1.0498 2.1454-2.6791 2.6624-3.3384z" fill="#0a96dd" fill-rule="evenodd"/><path d="m615.72 268.73c-2.6132-0.05-5.3944 2.0957-7.3595 7.087-0.36652 0.93094-0.67512 1.9096-0.91 2.7409-0.65048 3.1764-1.3336 6.4141-1.4801 9.1082-0.85441 15.717-3.4209 27.275-6.2715 35.541-0.40516 1.1526-0.83118 2.3162-1.2023 3.2625-1.1618 2.9621-2.3447 5.4161-3.4347 7.4105 1.2035-0.8218 2.6781-1.8494 4.3424-3.0426 3.4763-4.2431 7.4649-9.6435 11.184-15.88 0.42203-0.7076 0.83878-1.429 1.1901-2.0469 4.8095-8.4574 9.005-18.333 10.749-28.942 0.3084-1.8759 0.58208-3.5796 0.58878-5.3738 0.0149-3.9958-1.7334-7.4221-4.1914-8.8788-0.99127-0.58751-2.1783-0.9666-3.2052-0.98625z" fill="url(#linearGradient15544)" stroke-width="3.4385"/><path d="m599.14 331.26 4.6858-3.4353c-0.52877 0.74039-2.0999 2.5454-2.3969 2.8634-0.68758 0.73642-1.447 1.7113-2.253 2.5855-0.79623 0.86363-1.8134 1.9879-2.803 3.0063-1.2022 1.2372-2.2773 2.2925-2.4048 2.4147 0.80565-0.88991 1.5465-1.7417 2.2656-2.7604 1.4453-2.0475 2.4823-3.9202 2.9061-4.6741z" fill="#42b7ec" fill-rule="evenodd"/><path d="m570.42 364.65a10 10 0 0 1 -10 9.9999 10 10 0 0 1 -9.9999 -9.9999 10 10 0 0 1 9.9999 -10 10 10 0 0 1 10 10z" fill="url(#linearGradient17397)" fill-rule="evenodd" stroke-width=".78026"/><path d="m566.25 255.75c3.5639-0.3827 2.2241-5.4254 2.3937-8.2228 0.17092-2.8187 0.48957-5.6348 0.997-8.4126 0.46899-2.5675 0.97957-5.152 1.8869-7.5992 1.5112-4.0758 3.3903-8.0744 5.868-11.646 2.215-3.1931 4.9074-6.0987 7.9144-8.5605 2.8919-2.3676 5.8648-3.779 9.5735-5.8364-5.1288 1.9514-8.5878 3.8001-12.545 6.2964-5.9526 3.7549-11.091 10.757-14.376 17.576-2.9364 6.0954-4.0644 13.079-4.276 19.842-0.0485 1.549 0.0121 3.2053 0.69333 4.5974 0.39764 0.81266 0.69259 1.7555 1.8707 1.9665z" fill="url(#linearGradient17403)" stroke-width="2.6801"/></g></g></svg>
